<?xml version="1.0" encoding="UTF-8" standalone="no"?>
<svg
   id="_x32_"
   width="350"
   height="350"
   version="1.1"
   viewBox="0 0 350 350.00001"
   sodipodi:docname="lens.svg"
   inkscape:version="1.4.2 (ebf0e940, 2025-05-08)"
   xmlns:inkscape="http://www.inkscape.org/namespaces/inkscape"
   xmlns:sodipodi="http://sodipodi.sourceforge.net/DTD/sodipodi-0.dtd"
   xmlns="http://www.w3.org/2000/svg"
   xmlns:svg="http://www.w3.org/2000/svg">
  <sodipodi:namedview
     id="namedview106"
     pagecolor="#ffffff"
     bordercolor="#000000"
     borderopacity="0.25"
     inkscape:showpageshadow="2"
     inkscape:pageopacity="0.0"
     inkscape:pagecheckerboard="0"
     inkscape:deskcolor="#d1d1d1"
     showgrid="false"
     inkscape:zoom="1.9057143"
     inkscape:cx="175"
     inkscape:cy="165.55472"
     inkscape:window-width="1152"
     inkscape:window-height="1186"
     inkscape:window-x="758"
     inkscape:window-y="43"
     inkscape:window-maximized="0"
     inkscape:current-layer="_x32_" />
  <!-- Generator: Adobe Illustrator 29.0.1, SVG Export Plug-In . SVG Version: 2.1.0 Build 192)  -->
  <defs
     id="defs73">
    <style
       id="style71">
      .st0 {
        fill: #b3eefe;
      }
    </style>
  </defs>
  <g
     id="g101"
     transform="translate(-880.595,-117.04)">
    <path
       d="m 1111.8,191.65 v -3.31 h -8.25 v 3.31 c -23.94,1.99 -43.08,21.13 -45.07,45.07 h -3.31 v 8.25 h 3.31 c 1.99,23.94 21.13,43.08 45.07,45.07 v 3.31 h 8.25 v -3.31 c 23.94,-1.99 43.08,-21.13 45.07,-45.07 h 3.31 v -8.25 h -3.31 c -1.99,-23.94 -21.13,-43.08 -45.07,-45.07 z m 0,96.38 v -2.93 h -8.25 v 2.93 c -22.84,-1.98 -41.08,-20.23 -43.06,-43.06 h 2.93 v -8.25 h -2.93 c 1.98,-22.84 20.22,-41.08 43.06,-43.06 v 2.93 h 8.25 v -2.93 c 22.84,1.98 41.08,20.22 43.06,43.06 h -2.93 v 8.25 h 2.93 c -1.98,22.84 -20.22,41.08 -43.06,43.06 z"
       id="path97" />
    <path
       d="m 1181.18,236.72 h -3.26 c -2.06,-35.53 -30.6,-64.06 -66.12,-66.12 v -3.26 h -8.25 v 3.26 c -35.53,2.06 -64.06,30.6 -66.12,66.12 h -3.26 v 8.25 h 3.26 c 2.06,35.53 30.6,64.06 66.12,66.12 v 3.26 h 8.25 v -3.26 c 35.53,-2.06 64.06,-30.6 66.12,-66.12 h 3.26 z m -69.38,72.36 v -2.99 h -8.25 v 2.99 c -34.42,-2.06 -62.06,-29.69 -64.12,-64.12 h 2.99 v -8.25 h -2.99 c 2.06,-34.42 29.69,-62.06 64.12,-64.12 v 2.99 h 8.25 v -2.99 c 34.42,2.06 62.06,29.69 64.12,64.12 h -2.99 v 8.25 h 2.99 c -2.06,34.42 -29.69,62.06 -64.12,64.12 z"
       id="path99" />
  </g>
  <path
     d="m 227.075,14 c -60.55,0 -109.8,49.26 -109.8,109.8 0,22.25 6.66,42.97 18.08,60.29 l -17.51,17.51 5.18,5.18 -111.31,104.82 c -7.62,7.62 -7.62,19.96 0,27.58 7.62,7.62 19.96,7.62 27.58,0 l 104.82,-111.31 5.18,5.18 17.51,-17.51 c 17.32,11.42 38.04,18.08 60.29,18.08 60.55,0 109.8,-49.26 109.8,-109.8 0,-60.54 -49.26,-109.8 -109.8,-109.8 z m 0,198.6 c -48.97,0 -88.8,-39.84 -88.8,-88.8 0,-48.96 39.84,-88.8 88.8,-88.8 48.96,0 88.8,39.84 88.8,88.8 0,48.96 -39.84,88.8 -88.8,88.8 z"
     id="path103" />
</svg>
